<!--
  - Copyright (c) 2025 Artem Sukhanov (Stakancheck)
  -
  - Licensed under the Apache License, Version 2.0 (the "License");
  - you may not use this file except in compliance with the License.
  - You may obtain a copy of the License at
  - http://www.apache.org/licenses/LICENSE-2.0
  -
  - Unless required by applicable law or agreed to in writing, software
  - distributed under the License is distributed on an "AS IS" BASIS,
  - WITHOUT WARRANTIES OR CONDITIONS OF ANY KIND, either express or implied.
  - See the License for the specific language governing permissions and
  - limitations under the License.
  -->

<svg  xmlns="http://www.w3.org/2000/svg"  width="24"  height="24"  viewBox="0 0 24 24"  fill="currentColor"  class="icon icon-tabler icons-tabler-filled icon-tabler-folder"><path stroke="none" d="M0 0h24v24H0z" fill="none"/><path d="M9 3a1 1 0 0 1 .608 .206l.1 .087l2.706 2.707h6.586a3 3 0 0 1 2.995 2.824l.005 .176v8a3 3 0 0 1 -2.824 2.995l-.176 .005h-14a3 3 0 0 1 -2.995 -2.824l-.005 -.176v-11a3 3 0 0 1 2.824 -2.995l.176 -.005h4z" /></svg>