<!--
  - Copyright (c) 2025 Artem Sukhanov (Stakancheck)
  -
  - Licensed under the Apache License, Version 2.0 (the "License");
  - you may not use this file except in compliance with the License.
  - You may obtain a copy of the License at
  - http://www.apache.org/licenses/LICENSE-2.0
  -
  - Unless required by applicable law or agreed to in writing, software
  - distributed under the License is distributed on an "AS IS" BASIS,
  - WITHOUT WARRANTIES OR CONDITIONS OF ANY KIND, either express or implied.
  - See the License for the specific language governing permissions and
  - limitations under the License.
  -->

<svg  xmlns="http://www.w3.org/2000/svg"  width="24"  height="24"  viewBox="0 0 24 24"  fill="none"  stroke="currentColor"  stroke-width="2"  stroke-linecap="round"  stroke-linejoin="round"  class="icon icon-tabler icons-tabler-outline icon-tabler-git-fork"><path stroke="none" d="M0 0h24v24H0z" fill="none"/><path d="M12 18m-2 0a2 2 0 1 0 4 0a2 2 0 1 0 -4 0" /><path d="M7 6m-2 0a2 2 0 1 0 4 0a2 2 0 1 0 -4 0" /><path d="M17 6m-2 0a2 2 0 1 0 4 0a2 2 0 1 0 -4 0" /><path d="M7 8v2a2 2 0 0 0 2 2h6a2 2 0 0 0 2 -2v-2" /><path d="M12 12l0 4" /></svg>